<svg width="393" height="22" viewBox="0 0 393 22" fill="none" xmlns="http://www.w3.org/2000/svg">
<path d="M188.743 21.0154H187.867V0.876953H188.743V21.0154ZM186.991 21.0154H186.116V0.876953H186.991V21.0154ZM185.24 21.0154H184.365V0.876953H185.24V21.0154ZM190.494 16.6374H199.809V17.513H190.494V18.3886H199.809V19.2642H190.494V20.1398H199.809V21.0154H189.618V0.876953H199.809V1.75254H190.494V2.62812H199.809V3.5037H190.494V4.37929H199.809V5.25487H190.494V8.7572H195.273V9.63278H190.494V10.5084H195.273V11.3839H190.494V12.2595H195.273V13.1351H190.494V16.6374Z" fill="url(#paint0_linear_3115_8944)"/>
<path d="M176.801 11.3214L175.925 9.87428L175.925 0.875H176.801L176.801 11.3214ZM178.552 14.1914L177.676 12.7199L177.676 0.875H178.552L178.552 14.1914ZM180.303 17.0978L179.427 15.6142L179.427 0.875H180.303L180.303 17.0978ZM167.753 10.5674L168.629 12.0146V21.0136H167.753V10.5674ZM166.002 7.69748L166.877 9.16895V21.0136H166.002V7.69748ZM164.251 4.79103L165.126 6.27466V21.0136H164.251V4.79103ZM164.555 0.875229H165.576L177.956 21.0136H176.934L164.555 0.875229ZM166.622 0.875229H167.656L180.023 21.0136H178.978L166.622 0.875229ZM168.677 0.875229H169.699L181.179 19.5908L181.179 0.875H182.054L182.054 21.0136C182.054 21.0136 181.71 21.0136 181.021 21.0136L168.677 0.875229ZM163.375 2.29805V21.0136H162.5V0.875229C162.5 0.875229 162.848 0.875229 163.545 0.875229L175.889 21.0136H174.879L163.375 2.29805Z" fill="url(#paint1_linear_3115_8944)"/>
<path d="M149.269 21.0154H148.393V0.876953H149.269V21.0154ZM147.517 21.0154H146.642V0.876953H147.517V21.0154ZM145.766 21.0154H144.891V0.876953H145.766V21.0154ZM151.02 16.6374H160.335V17.513H151.02V18.3886H160.335V19.2642H151.02V20.1398H160.335V21.0154H150.144V0.876953H160.335V1.75254H151.02V2.62812H160.335V3.5037H151.02V4.37929H160.335V5.25487H151.02V8.7572H155.799V9.63278H151.02V10.5084H155.799V11.3839H151.02V12.2595H155.799V13.1351H151.02V16.6374Z" fill="url(#paint2_linear_3115_8944)"/>
<path d="M138.859 7.75864L138.141 8.23291C137.703 7.58433 137.132 7.07358 136.426 6.70064C135.729 6.3196 134.971 6.12908 134.152 6.12908C132.823 6.12908 131.688 6.5993 130.747 7.53974C129.807 8.48018 129.337 9.6152 129.337 10.9448C129.337 12.2744 129.807 13.4094 130.747 14.3498C131.688 15.2903 132.823 15.7605 134.152 15.7605C134.971 15.7605 135.729 15.57 136.426 15.1889C137.132 14.8079 137.703 14.2931 138.141 13.6445L138.846 14.1553C138.328 14.9173 137.655 15.5213 136.828 15.9672C136.001 16.4131 135.109 16.6361 134.152 16.6361C133.382 16.6361 132.644 16.4861 131.939 16.1861C131.242 15.8862 130.638 15.4808 130.127 14.97C129.616 14.4593 129.211 13.8553 128.911 13.1581C128.611 12.4527 128.461 11.715 128.461 10.9448C128.461 10.1746 128.611 9.44089 128.911 8.74367C129.211 8.03834 129.616 7.4303 130.127 6.91954C130.638 6.40878 131.242 6.00342 131.939 5.70345C132.644 5.40348 133.382 5.2535 134.152 5.2535C135.117 5.2535 136.013 5.4805 136.84 5.93451C137.667 6.38041 138.34 6.98845 138.859 7.75864ZM140.306 6.76145L139.576 7.23572C138.976 6.36014 138.198 5.66697 137.241 5.15621C136.293 4.63735 135.263 4.37792 134.152 4.37792C132.961 4.37792 131.862 4.67383 130.857 5.26566C129.851 5.84938 129.053 6.64389 128.461 7.64919C127.877 8.65449 127.585 9.75302 127.585 10.9448C127.585 12.1366 127.877 13.2351 128.461 14.2404C129.053 15.2457 129.851 16.0442 130.857 16.6361C131.862 17.2198 132.961 17.5117 134.152 17.5117C135.263 17.5117 136.297 17.2522 137.253 16.7334C138.21 16.2145 138.988 15.5132 139.588 14.6295L140.306 15.1281C139.625 16.1334 138.741 16.9279 137.655 17.5117C136.576 18.0954 135.409 18.3872 134.152 18.3872C132.807 18.3872 131.562 18.0548 130.419 17.3901C129.276 16.7253 128.372 15.8213 127.707 14.6782C127.042 13.5351 126.71 12.2906 126.71 10.9448C126.71 9.59899 127.042 8.35452 127.707 7.2114C128.372 6.06828 129.276 5.16432 130.419 4.49952C131.562 3.83473 132.807 3.50233 134.152 3.50233C135.409 3.50233 136.576 3.79419 137.655 4.37792C138.741 4.96164 139.625 5.75615 140.306 6.76145ZM141.765 5.78858L141.035 6.26285C140.273 5.14405 139.284 4.26036 138.068 3.61178C136.86 2.95509 135.555 2.62675 134.152 2.62675C133.025 2.62675 131.947 2.84564 130.918 3.28344C129.888 3.72123 129 4.31306 128.254 5.05892C127.517 5.79668 126.929 6.68037 126.491 7.71C126.053 8.73962 125.834 9.81788 125.834 10.9448C125.834 12.0717 126.053 13.15 126.491 14.1796C126.929 15.2092 127.517 16.0969 128.254 16.8428C129 17.5806 129.888 18.1683 130.918 18.6061C131.947 19.0439 133.025 19.2628 134.152 19.2628C135.563 19.2628 136.872 18.9345 138.08 18.2778C139.288 17.6211 140.273 16.7334 141.035 15.6146L141.741 16.1375C140.898 17.3698 139.807 18.3467 138.469 19.0683C137.14 19.7817 135.701 20.1384 134.152 20.1384C132.49 20.1384 130.954 19.729 129.543 18.9102C128.133 18.0832 127.014 16.9644 126.187 15.5538C125.368 14.1431 124.959 12.6068 124.959 10.9448C124.959 9.2828 125.368 7.74648 126.187 6.33582C127.014 4.92515 128.133 3.81041 129.543 2.99158C130.954 2.16464 132.49 1.75117 134.152 1.75117C135.709 1.75117 137.156 2.11599 138.494 2.84565C139.831 3.56719 140.922 4.54817 141.765 5.78858ZM143.2 4.79139L142.47 5.26566C141.546 3.91175 140.35 2.84159 138.883 2.05519C137.424 1.26878 135.847 0.875583 134.152 0.875583C132.79 0.875583 131.485 1.14312 130.237 1.6782C128.996 2.20517 127.926 2.91861 127.026 3.81852C126.126 4.71842 125.409 5.79263 124.874 7.04115C124.347 8.28156 124.083 9.58277 124.083 10.9448C124.083 12.3068 124.347 13.6121 124.874 14.8606C125.409 16.101 126.126 17.1712 127.026 18.0711C127.926 18.971 128.996 19.6885 130.237 20.2235C131.485 20.7505 132.79 21.014 134.152 21.014C135.847 21.014 137.428 20.6167 138.895 19.8222C140.362 19.0277 141.558 17.9535 142.483 16.5996L143.188 17.1347C142.183 18.594 140.885 19.7533 139.296 20.6127C137.707 21.4639 135.993 21.8896 134.152 21.8896C132.669 21.8896 131.25 21.5977 129.896 21.014C128.55 20.4384 127.387 19.6641 126.406 18.6913C125.433 17.7103 124.655 16.5469 124.071 15.2011C123.495 13.8472 123.208 12.4284 123.208 10.9448C123.208 9.46116 123.495 8.04645 124.071 6.70064C124.655 5.34673 125.433 4.18334 126.406 3.21047C127.387 2.22949 128.55 1.4512 129.896 0.875583C131.25 0.291861 132.669 0 134.152 0C136.001 0 137.719 0.429684 139.309 1.28905C140.898 2.14842 142.195 3.31587 143.2 4.79139Z" fill="url(#paint3_linear_3115_8944)"/>
<path d="M114.792 8.75583H113.321C112.697 8.75583 112.247 8.59774 111.971 8.28156C111.695 7.95727 111.558 7.53164 111.558 7.00466C111.558 5.83722 112.429 5.2535 114.172 5.2535C115.81 5.2535 117.042 5.49672 117.869 5.98315L117.164 6.51823C116.596 6.2588 115.599 6.12908 114.172 6.12908C113.475 6.12908 113.005 6.2061 112.761 6.36014C112.526 6.51418 112.409 6.72902 112.409 7.00466C112.409 7.28031 112.474 7.49515 112.603 7.64919C112.733 7.80323 112.972 7.88025 113.321 7.88025H114.829C115.923 7.88025 116.908 8.06671 117.784 8.43965C118.668 8.81258 119.393 9.32334 119.961 9.97192C120.528 10.6124 120.962 11.3542 121.262 12.1974C121.562 13.0324 121.712 13.9283 121.712 14.8849C121.712 15.6632 121.602 16.401 121.384 17.0982C121.165 17.7954 120.832 18.4359 120.386 19.0196C119.949 19.6033 119.417 20.11 118.793 20.5397C118.177 20.9613 117.439 21.2896 116.58 21.5248C115.729 21.768 114.804 21.8896 113.807 21.8896C112.243 21.8896 110.775 21.6504 109.405 21.1721C108.043 20.7019 106.908 20.0411 106 19.1899L106.705 18.6669C107.532 19.4128 108.566 19.9925 109.806 20.4059C111.055 20.8113 112.389 21.014 113.807 21.014C114.918 21.014 115.919 20.8559 116.811 20.5397C117.711 20.2154 118.449 19.7736 119.024 19.2142C119.608 18.6548 120.054 18.0062 120.362 17.2684C120.678 16.5307 120.836 15.7362 120.836 14.8849C120.836 13.758 120.609 12.7405 120.155 11.8325C119.701 10.9164 119.008 10.1746 118.076 9.60709C117.152 9.03958 116.057 8.75583 114.792 8.75583ZM113.321 9.63141H114.707C116.353 9.63141 117.638 10.1341 118.562 11.1394C119.495 12.1447 119.961 13.3932 119.961 14.8849C119.961 16.401 119.422 17.6576 118.343 18.6548C117.265 19.6439 115.753 20.1384 113.807 20.1384C112.51 20.1384 111.298 19.9601 110.171 19.6033C109.044 19.2466 108.108 18.744 107.362 18.0954L108.043 17.5481C108.708 18.0913 109.543 18.5129 110.548 18.8129C111.562 19.1128 112.648 19.2628 113.807 19.2628C115.518 19.2628 116.823 18.8534 117.723 18.0346C118.631 17.2157 119.085 16.1659 119.085 14.8849C119.085 13.6202 118.704 12.5743 117.942 11.7474C117.188 10.9205 116.106 10.507 114.695 10.507H113.321C112.137 10.507 111.249 10.1827 110.658 9.53413C110.066 8.88555 109.77 8.04239 109.77 7.00466C109.77 5.96694 110.135 5.12378 110.864 4.4752C111.602 3.82662 112.705 3.50233 114.172 3.50233C115.202 3.50233 116.158 3.62394 117.042 3.86716C117.926 4.10227 118.655 4.44277 119.231 4.88867L118.538 5.42375C117.524 4.72653 116.069 4.37792 114.172 4.37792C112.948 4.37792 112.052 4.62113 111.485 5.10757C110.925 5.5859 110.645 6.21826 110.645 7.00466C110.645 7.79918 110.852 8.43559 111.266 8.91392C111.687 9.39225 112.372 9.63141 113.321 9.63141ZM113.321 11.3826H114.659C115.842 11.3826 116.73 11.7109 117.322 12.3676C117.914 13.0243 118.21 13.8634 118.21 14.8849C118.21 15.9226 117.841 16.7658 117.103 17.4144C116.373 18.063 115.275 18.3872 113.807 18.3872C112.778 18.3872 111.817 18.2697 110.925 18.0346C110.041 17.7914 109.312 17.4468 108.736 17.0009L109.429 16.4658C110.443 17.1631 111.902 17.5117 113.807 17.5117C115.031 17.5117 115.923 17.2725 116.483 16.7942C117.05 16.3077 117.334 15.6713 117.334 14.8849C117.334 14.0985 117.123 13.4661 116.702 12.9878C116.28 12.5014 115.595 12.2582 114.646 12.2582H113.321C111.659 12.2582 110.358 11.7636 109.417 10.7745C108.485 9.77734 108.019 8.52072 108.019 7.00466C108.019 5.48861 108.558 4.23604 109.636 3.24695C110.714 2.24976 112.226 1.75117 114.172 1.75117C115.469 1.75117 116.677 1.92953 117.796 2.28624C118.923 2.64296 119.859 3.14561 120.605 3.79419L119.924 4.34143C119.259 3.79825 118.424 3.37667 117.419 3.0767C116.414 2.77673 115.331 2.62675 114.172 2.62675C112.461 2.62675 111.152 3.03617 110.244 3.855C109.344 4.67383 108.894 5.72372 108.894 7.00466C108.894 8.2775 109.275 9.32739 110.037 10.1543C110.799 10.9732 111.894 11.3826 113.321 11.3826ZM113.321 13.1337H114.659C115.283 13.1337 115.733 13.2959 116.008 13.6202C116.284 13.9445 116.422 14.366 116.422 14.8849C116.422 16.0524 115.55 16.6361 113.807 16.6361C112.162 16.6361 110.925 16.3929 110.098 15.9064L110.804 15.3713C111.371 15.6308 112.372 15.7605 113.807 15.7605C114.505 15.7605 114.971 15.6835 115.206 15.5294C115.449 15.3754 115.571 15.1606 115.571 14.8849C115.571 14.6174 115.502 14.4066 115.364 14.2525C115.234 14.0904 114.991 14.0093 114.634 14.0093H113.321C112.202 14.0093 111.189 13.8269 110.281 13.4621C109.381 13.0973 108.639 12.5946 108.055 11.9541C107.48 11.3137 107.038 10.5719 106.73 9.7287C106.422 8.88555 106.268 7.97754 106.268 7.00466C106.268 6.22637 106.377 5.48861 106.596 4.79139C106.815 4.09416 107.143 3.45369 107.581 2.86997C108.027 2.28624 108.558 1.7836 109.174 1.36202C109.798 0.932334 110.536 0.599937 111.387 0.364826C112.247 0.121609 113.175 0 114.172 0C115.737 0 117.2 0.239164 118.562 0.717492C119.924 1.18771 121.059 1.84845 121.967 2.69971L121.262 3.22263C120.435 2.47677 119.401 1.90115 118.161 1.49579C116.92 1.08232 115.591 0.875583 114.172 0.875583C113.061 0.875583 112.056 1.03773 111.156 1.36202C110.264 1.6782 109.527 2.11599 108.943 2.67539C108.367 3.23479 107.921 3.88337 107.605 4.62113C107.297 5.35889 107.143 6.1534 107.143 7.00466C107.143 8.14779 107.374 9.17741 107.836 10.0935C108.298 11.0096 109.004 11.7474 109.952 12.3068C110.901 12.8581 112.024 13.1337 113.321 13.1337Z" fill="url(#paint4_linear_3115_8944)"/>
<path d="M276.262 21.0154H275.386V0.876953H276.262V21.0154ZM274.511 21.0154H273.635V0.876953H274.511V21.0154ZM272.759 21.0154H271.884V0.876953H272.759V21.0154ZM278.013 16.6374H287.328V17.513H278.013V18.3886H287.328V19.2642H278.013V20.1398H287.328V21.0154H277.137V0.876953H287.328V1.75254H278.013V2.62812H287.328V3.5037H278.013V4.37929H287.328V5.25487H278.013V8.7572H282.792V9.63278H278.013V10.5084H282.792V11.3839H278.013V12.2595H282.792V13.1351H278.013V16.6374Z" fill="url(#paint5_linear_3115_8944)"/>
<path d="M264.63 11.3231L263.755 9.876V0.876953H264.63V11.3231ZM266.381 14.1931L265.506 12.7216V0.876953H266.381V14.1931ZM268.133 17.0996L267.257 15.6159V0.876953H268.133V17.0996ZM255.583 10.5692L256.458 12.0163V21.0154H255.583V10.5692ZM253.831 7.6992L254.707 9.17067V21.0154H253.831V7.6992ZM252.08 4.79275L252.956 6.27638V21.0154H252.08V4.79275ZM252.384 0.876953H253.406L265.786 21.0154H264.764L252.384 0.876953ZM254.452 0.876953H255.485L267.853 21.0154H266.807L254.452 0.876953ZM256.507 0.876953H257.528L269.008 19.5925V0.876953H269.884V21.0154C269.884 21.0154 269.539 21.0154 268.85 21.0154L256.507 0.876953ZM251.205 2.29978V21.0154H250.329V0.876953C250.329 0.876953 250.678 0.876953 251.375 0.876953L263.718 21.0154H262.709L251.205 2.29978Z" fill="url(#paint6_linear_3115_8944)"/>
<path d="M233.979 7.53974C233.039 8.48018 232.569 9.6152 232.569 10.9448C232.569 12.2744 233.039 13.4094 233.979 14.3498C234.92 15.2903 236.055 15.7605 237.384 15.7605C238.714 15.7605 239.849 15.2903 240.789 14.3498C241.73 13.4094 242.2 12.2744 242.2 10.9448C242.2 9.6152 241.73 8.48018 240.789 7.53974C239.849 6.5993 238.714 6.12908 237.384 6.12908C236.055 6.12908 234.92 6.5993 233.979 7.53974ZM232.143 13.1581C231.843 12.4527 231.693 11.715 231.693 10.9448C231.693 10.1746 231.843 9.44089 232.143 8.74367C232.443 8.03834 232.848 7.43029 233.359 6.91954C233.87 6.40878 234.474 6.00342 235.171 5.70345C235.876 5.40348 236.614 5.2535 237.384 5.2535C238.154 5.2535 238.888 5.40348 239.585 5.70345C240.291 6.00342 240.899 6.40878 241.409 6.91954C241.92 7.43029 242.326 8.03834 242.626 8.74367C242.926 9.44089 243.076 10.1746 243.076 10.9448C243.076 11.715 242.926 12.4527 242.626 13.1581C242.326 13.8553 241.92 14.4593 241.409 14.97C240.899 15.4808 240.291 15.8862 239.585 16.1861C238.888 16.4861 238.154 16.6361 237.384 16.6361C236.614 16.6361 235.876 16.4861 235.171 16.1861C234.474 15.8862 233.87 15.4808 233.359 14.97C232.848 14.4593 232.443 13.8553 232.143 13.1581ZM231.693 7.64919C231.109 8.65449 230.817 9.75302 230.817 10.9448C230.817 12.1366 231.109 13.2351 231.693 14.2404C232.285 15.2457 233.083 16.0442 234.089 16.6361C235.094 17.2198 236.192 17.5117 237.384 17.5117C238.576 17.5117 239.675 17.2198 240.68 16.6361C241.685 16.0442 242.48 15.2457 243.063 14.2404C243.655 13.2351 243.951 12.1366 243.951 10.9448C243.951 9.75302 243.655 8.65449 243.063 7.64919C242.48 6.64389 241.685 5.84938 240.68 5.26566C239.675 4.67383 238.576 4.37791 237.384 4.37791C236.192 4.37791 235.094 4.67383 234.089 5.26566C233.083 5.84938 232.285 6.64389 231.693 7.64919ZM230.939 14.6782C230.274 13.5351 229.942 12.2906 229.942 10.9448C229.942 9.59898 230.274 8.35452 230.939 7.2114C231.604 6.06827 232.508 5.16432 233.651 4.49952C234.794 3.83473 236.038 3.50233 237.384 3.50233C238.73 3.50233 239.975 3.83473 241.118 4.49952C242.261 5.16432 243.165 6.06827 243.83 7.2114C244.494 8.35452 244.827 9.59898 244.827 10.9448C244.827 12.2906 244.494 13.5351 243.83 14.6782C243.165 15.8213 242.261 16.7253 241.118 17.39C239.975 18.0548 238.73 18.3872 237.384 18.3872C236.038 18.3872 234.794 18.0548 233.651 17.39C232.508 16.7253 231.604 15.8213 230.939 14.6782ZM229.723 7.70999C229.285 8.73961 229.066 9.81788 229.066 10.9448C229.066 12.0717 229.285 13.15 229.723 14.1796C230.161 15.2092 230.748 16.0969 231.486 16.8428C232.232 17.5806 233.12 18.1683 234.149 18.6061C235.179 19.0439 236.257 19.2628 237.384 19.2628C238.511 19.2628 239.589 19.0439 240.619 18.6061C241.649 18.1683 242.532 17.5806 243.27 16.8428C244.016 16.0969 244.608 15.2092 245.046 14.1796C245.483 13.15 245.702 12.0717 245.702 10.9448C245.702 9.81788 245.483 8.73961 245.046 7.70999C244.608 6.68037 244.016 5.79668 243.27 5.05892C242.532 4.31306 241.649 3.72123 240.619 3.28344C239.589 2.84564 238.511 2.62675 237.384 2.62675C236.257 2.62675 235.179 2.84564 234.149 3.28344C233.12 3.72123 232.232 4.31306 231.486 5.05892C230.748 5.79668 230.161 6.68037 229.723 7.70999ZM229.419 15.5538C228.6 14.1431 228.191 12.6068 228.191 10.9448C228.191 9.2828 228.6 7.74648 229.419 6.33582C230.246 4.92515 231.365 3.81041 232.775 2.99157C234.186 2.16463 235.722 1.75117 237.384 1.75117C239.046 1.75117 240.583 2.16463 241.993 2.99157C243.404 3.81041 244.519 4.92515 245.337 6.33582C246.164 7.74648 246.578 9.2828 246.578 10.9448C246.578 12.6068 246.164 14.1431 245.337 15.5538C244.519 16.9644 243.404 18.0832 241.993 18.9102C240.583 19.729 239.046 20.1384 237.384 20.1384C235.722 20.1384 234.186 19.729 232.775 18.9102C231.365 18.0832 230.246 16.9644 229.419 15.5538ZM228.105 7.04115C227.579 8.28156 227.315 9.58277 227.315 10.9448C227.315 12.3068 227.579 13.6121 228.105 14.8606C228.641 16.101 229.358 17.1712 230.258 18.0711C231.158 18.971 232.228 19.6885 233.468 20.2235C234.717 20.7505 236.022 21.014 237.384 21.014C238.746 21.014 240.047 20.7505 241.288 20.2235C242.536 19.6885 243.611 18.971 244.511 18.0711C245.41 17.1712 246.124 16.101 246.651 14.8606C247.186 13.6121 247.453 12.3068 247.453 10.9448C247.453 9.58277 247.186 8.28156 246.651 7.04115C246.124 5.79263 245.41 4.71842 244.511 3.81852C243.611 2.91861 242.536 2.20517 241.288 1.6782C240.047 1.14312 238.746 0.875582 237.384 0.875582C236.022 0.875582 234.717 1.14312 233.468 1.6782C232.228 2.20517 231.158 2.91861 230.258 3.81852C229.358 4.71842 228.641 5.79263 228.105 7.04115ZM227.303 15.2011C226.727 13.8472 226.439 12.4284 226.439 10.9448C226.439 9.46116 226.727 8.04644 227.303 6.70064C227.887 5.34673 228.665 4.18334 229.638 3.21047C230.619 2.22949 231.782 1.4512 233.128 0.875582C234.482 0.29186 235.901 0 237.384 0C238.868 0 240.283 0.29186 241.628 0.875582C242.982 1.4512 244.146 2.22949 245.119 3.21047C246.1 4.18334 246.878 5.34673 247.453 6.70064C248.037 8.04644 248.329 9.46116 248.329 10.9448C248.329 12.4284 248.037 13.8472 247.453 15.2011C246.878 16.5469 246.1 17.7103 245.119 18.6913C244.146 19.6641 242.982 20.4384 241.628 21.014C240.283 21.5977 238.868 21.8896 237.384 21.8896C235.901 21.8896 234.482 21.5977 233.128 21.014C231.782 20.4384 230.619 19.6641 229.638 18.6913C228.665 17.7103 227.887 16.5469 227.303 15.2011Z" fill="url(#paint7_linear_3115_8944)"/>
<path d="M214.845 15.7619L216.292 14.8863H224.439V15.7619H214.845ZM211.975 17.513L213.446 16.6374H224.439V17.513H211.975ZM209.068 19.2642L210.552 18.3886H224.439V19.2642H209.068ZM214.747 6.13045L213.3 7.00603H205.152V6.13045H214.747ZM217.617 4.37929L216.146 5.25487H205.152V4.37929H217.617ZM220.524 2.62812L219.04 3.5037H205.152V2.62812H220.524ZM224.439 2.93214V3.95365L205.152 16.9171V15.8956L224.439 2.93214ZM224.439 4.99949V6.03317L205.152 18.9845V17.9387L224.439 4.99949ZM224.439 7.05468V8.07619L206.454 20.1398H224.439V21.0154H205.152C205.152 21.0154 205.152 20.6708 205.152 19.9817L224.439 7.05468ZM223.138 1.75254H205.152V0.876953H224.439C224.439 0.876953 224.439 1.22556 224.439 1.92279L205.152 14.8498V13.8404L223.138 1.75254Z" fill="url(#paint8_linear_3115_8944)"/>
<rect x="294" y="9" width="99" height="1" fill="url(#paint9_linear_3115_8944)"/>
<rect x="294" y="11" width="99" height="1" fill="url(#paint10_linear_3115_8944)"/>
<rect x="294" y="13" width="99" height="1" fill="url(#paint11_linear_3115_8944)"/>
<rect y="9" width="99" height="1" fill="url(#paint12_linear_3115_8944)"/>
<rect y="11" width="99" height="1" fill="url(#paint13_linear_3115_8944)"/>
<rect y="13" width="99" height="1" fill="url(#paint14_linear_3115_8944)"/>
<defs>
<linearGradient id="paint0_linear_3115_8944" x1="199.809" y1="10.8929" x2="184.365" y2="10.8929" gradientUnits="userSpaceOnUse">
<stop stop-color="#B15CDE"/>
<stop offset="1" stop-color="#7952FC"/>
</linearGradient>
<linearGradient id="paint1_linear_3115_8944" x1="182.054" y1="10.891" x2="162.5" y2="10.891" gradientUnits="userSpaceOnUse">
<stop stop-color="#B15CDE"/>
<stop offset="1" stop-color="#7952FC"/>
</linearGradient>
<linearGradient id="paint2_linear_3115_8944" x1="160.335" y1="10.8929" x2="144.891" y2="10.8929" gradientUnits="userSpaceOnUse">
<stop stop-color="#B15CDE"/>
<stop offset="1" stop-color="#7952FC"/>
</linearGradient>
<linearGradient id="paint3_linear_3115_8944" x1="143.2" y1="10.8869" x2="123.208" y2="10.8869" gradientUnits="userSpaceOnUse">
<stop stop-color="#B15CDE"/>
<stop offset="1" stop-color="#7952FC"/>
</linearGradient>
<linearGradient id="paint4_linear_3115_8944" x1="121.967" y1="10.8869" x2="106" y2="10.8869" gradientUnits="userSpaceOnUse">
<stop stop-color="#B15CDE"/>
<stop offset="1" stop-color="#7952FC"/>
</linearGradient>
<linearGradient id="paint5_linear_3115_8944" x1="287.328" y1="10.8929" x2="271.884" y2="10.8929" gradientUnits="userSpaceOnUse">
<stop stop-color="#B15CDE"/>
<stop offset="1" stop-color="#7952FC"/>
</linearGradient>
<linearGradient id="paint6_linear_3115_8944" x1="269.884" y1="10.8929" x2="250.329" y2="10.8929" gradientUnits="userSpaceOnUse">
<stop stop-color="#B15CDE"/>
<stop offset="1" stop-color="#7952FC"/>
</linearGradient>
<linearGradient id="paint7_linear_3115_8944" x1="248.329" y1="10.8869" x2="226.439" y2="10.8869" gradientUnits="userSpaceOnUse">
<stop stop-color="#B15CDE"/>
<stop offset="1" stop-color="#7952FC"/>
</linearGradient>
<linearGradient id="paint8_linear_3115_8944" x1="224.439" y1="10.8929" x2="205.152" y2="10.8929" gradientUnits="userSpaceOnUse">
<stop stop-color="#B15CDE"/>
<stop offset="1" stop-color="#7952FC"/>
</linearGradient>
<linearGradient id="paint9_linear_3115_8944" x1="393" y1="9.49735" x2="294" y2="9.49745" gradientUnits="userSpaceOnUse">
<stop stop-color="#7952FC"/>
<stop offset="1" stop-color="#B15CDE"/>
</linearGradient>
<linearGradient id="paint10_linear_3115_8944" x1="393" y1="11.4974" x2="294" y2="11.4975" gradientUnits="userSpaceOnUse">
<stop stop-color="#7952FC"/>
<stop offset="1" stop-color="#B15CDE"/>
</linearGradient>
<linearGradient id="paint11_linear_3115_8944" x1="393" y1="13.4974" x2="294" y2="13.4975" gradientUnits="userSpaceOnUse">
<stop stop-color="#7952FC"/>
<stop offset="1" stop-color="#B15CDE"/>
</linearGradient>
<linearGradient id="paint12_linear_3115_8944" x1="99" y1="9.49735" x2="4.85988e-07" y2="9.49745" gradientUnits="userSpaceOnUse">
<stop stop-color="#B15CDE"/>
<stop offset="1" stop-color="#7952FC"/>
</linearGradient>
<linearGradient id="paint13_linear_3115_8944" x1="99" y1="11.4974" x2="4.85988e-07" y2="11.4975" gradientUnits="userSpaceOnUse">
<stop stop-color="#B15CDE"/>
<stop offset="1" stop-color="#7952FC"/>
</linearGradient>
<linearGradient id="paint14_linear_3115_8944" x1="99" y1="13.4974" x2="4.85988e-07" y2="13.4975" gradientUnits="userSpaceOnUse">
<stop stop-color="#B15CDE"/>
<stop offset="1" stop-color="#7952FC"/>
</linearGradient>
</defs>
</svg>
